<?xml version="1.0" encoding="utf-8"?>
<!-- Generator: Adobe Illustrator 24.3.0, SVG Export Plug-In . SVG Version: 6.00 Build 0)  -->
<svg version="1.1" id="レイヤー_1" xmlns="http://www.w3.org/2000/svg" xmlns:xlink="http://www.w3.org/1999/xlink" x="0px"
	 y="0px" width="29.952px" height="48.567px" viewBox="0 0 29.952 48.567" enable-background="new 0 0 29.952 48.567"
	 xml:space="preserve">
<g>
	<path fill-rule="evenodd" clip-rule="evenodd" fill="#ffb6c1" d="M29.306,12.378c0.094-0.098,0.182-0.202,0.258-0.316
		c0.059-0.088,0.104-0.182,0.15-0.276c0.019-0.038,0.043-0.073,0.06-0.113c0.057-0.136,0.1-0.276,0.13-0.418
		c0-0.002,0.001-0.004,0.002-0.005c0.151-0.732-0.055-1.522-0.623-2.09l-8.487-8.487c-0.897-0.897-2.351-0.898-3.248,0
		c-0.897,0.897-0.897,2.352,0,3.248l4.57,4.57H5.295c-1.268,0-2.297,1.027-2.297,2.296c0,1.268,1.028,2.297,2.297,2.297h16.813
		l-4.562,4.562c-0.897,0.897-0.897,2.352,0,3.248c0.897,0.897,2.351,0.897,3.248,0l8.477-8.477c0.003-0.003,0.006-0.006,0.009-0.009
		c0,0,0,0,0.001-0.001C29.291,12.398,29.297,12.388,29.306,12.378z"/>
	<path fill-rule="evenodd" clip-rule="evenodd" fill="#ffb6c1" d="M24.658,35.483H7.844l4.562-4.562
		c0.897-0.897,0.897-2.352,0-3.248c-0.897-0.897-2.351-0.897-3.248,0L0.68,36.151c-0.003,0.003-0.006,0.005-0.009,0.008
		c0,0-0.001,0-0.001,0.001c-0.011,0.011-0.018,0.025-0.029,0.036c-0.092,0.096-0.178,0.198-0.252,0.309
		c-0.059,0.088-0.104,0.182-0.15,0.276c-0.019,0.038-0.043,0.073-0.06,0.113c-0.057,0.136-0.1,0.276-0.13,0.418
		c0,0.002-0.001,0.004-0.002,0.005c-0.151,0.732,0.055,1.522,0.623,2.09l8.487,8.487c0.897,0.897,2.351,0.898,3.248,0
		c0.897-0.897,0.897-2.352,0-3.248l-4.57-4.57h16.822c1.268,0,2.297-1.027,2.297-2.296C26.954,36.511,25.926,35.483,24.658,35.483z"
		/>
</g>
</svg>
