<?xml version="1.0" encoding="UTF-8"?>
<svg id="_レイヤー_2" data-name="レイヤー 2" xmlns="http://www.w3.org/2000/svg" viewBox="0 0 53.294 53.294">
  <defs>
    <style>
      .cls-1 {
        fill: none;
        stroke: #000;
        stroke-miterlimit: 10;
        stroke-width: 2px;
      }

      .cls-2, .cls-3 {
        stroke-width: 0px;
      }

      .cls-3 {
        fill: #c1dfff;
      }
    </style>
  </defs>
  <g id="_レイヤー_1-2" data-name="レイヤー 1">
    <g>
      <g>
        <circle class="cls-3" cx="28.99" cy="28.99" r="24.305"/>
        <circle class="cls-1" cx="25.305" cy="25.305" r="24.305"/>
      </g>
      <path class="cls-2" d="m32.51,17.826c-1.269-.828-2.186-2.152-2.471-3.696-.062-.334-.096-.677-.096-1.028h-4.051l-.007,16.237c-.068,1.818-1.565,3.278-3.399,3.278-.57,0-1.107-.143-1.58-.391-1.084-.57-1.826-1.707-1.826-3.014,0-1.878,1.528-3.406,3.406-3.406.351,0,.687.058,1.005.157v-4.136c-.329-.045-.664-.073-1.005-.073-4.112,0-7.457,3.345-7.457,7.457,0,2.523,1.26,4.756,3.184,6.106,1.211.85,2.685,1.352,4.274,1.352,4.112,0,7.457-3.345,7.457-7.457v-8.233c1.589,1.141,3.536,1.813,5.637,1.813v-4.051c-1.132,0-2.186-.336-3.069-.913Z"/>
    </g>
  </g>
</svg>